<svg width="16" height="16" viewBox="0 0 16 16" fill="none" xmlns="http://www.w3.org/2000/svg">
<path d="M0 6H16V10H0V6Z" fill="#EC1C24"/>
<path d="M13.5 2.5H2.5C0.84325 2.5 0 3.73125 0 5.25V6H16V5.25C16 3.73125 15.1567 2.5 13.5 2.5Z" fill="#1B75BB"/>
<path d="M0 10.75C0 12.2687 0.84325 13.5 2.5 13.5H13.5C15.1567 13.5 16 12.2687 16 10.75V10H0V10.75Z" fill="#29B473"/>
<path fill-rule="evenodd" clip-rule="evenodd" d="M8.8375 8.8075C8.51425 9.31 7.84175 9.62825 7.138 9.42325C6.47425 9.229 6.01825 8.58575 6.0565 7.892C6.093 7.195 6.616 6.602 7.2965 6.481C8.01725 6.35375 8.5955 6.73975 8.8435 7.1435C8.54975 6.8565 8.20925 6.726 7.81025 6.77225C7.498 6.80825 7.2365 6.94925 7.0325 7.18725C6.632 7.653 6.6465 8.35225 7.065 8.79225C7.3045 9.04475 7.59925 9.17625 7.9475 9.1795C8.29475 9.182 8.58925 9.0505 8.8375 8.8075Z" fill="#E6E7E8"/>
<path d="M9.95747 8.15449L10.3375 7.97149L9.95747 7.78749L10.0975 7.39074L9.69872 7.52999L9.51497 7.15024L9.33247 7.52999L8.93447 7.39074L9.07247 7.78749L8.69397 7.97149L9.07247 8.15449L8.93447 8.55249L9.33247 8.41374L9.51497 8.79249L9.69872 8.41374L10.0975 8.55249L9.95747 8.15449Z" fill="#E6E7E8"/>
</svg>
