<svg width="32" height="27" viewBox="0 0 32 27" fill="none" xmlns="http://www.w3.org/2000/svg">
<path d="M26.1231 5.63888H16.7683C9.28456 5.63888 8.40232 12.9656 8.89668 16.6289C9.58117 14.6035 12.8325 13.5602 14.3726 13.2916C13.6425 10.7599 15.9698 10.127 17.2247 10.127H22.1302C24.7769 9.34442 25.8949 6.80885 26.1231 5.63888Z" fill="#214671"/>
<path d="M21.6756 13.9246H14.6595C10.2788 14.1087 8.57516 17.3769 8.27094 18.9881L7.30125 24.4543L12.6631 22.0952C12.8 18.965 14.1652 18.2209 14.8307 18.24H17.8538L21.6756 13.9246Z" fill="#438DE2"/>
<path d="M27.2656 3.74007L28.7487 4.02777C22.2232 22.7166 6.86393 26.7751 0 26.4682C19.0745 30.1968 28.5966 13.4067 30.9733 4.54562L32 4.83332L30.9733 0L27.2656 3.74007Z" fill="url(#paint0_linear_28_356)"/>
<defs>
<linearGradient id="paint0_linear_28_356" x1="29.383" y1="1.39098e-06" x2="2.38405" y2="26.765" gradientUnits="userSpaceOnUse">
<stop stop-color="#82B3EC"/>
<stop offset="1" stop-color="#438DE2"/>
</linearGradient>
</defs>
</svg>
