<svg width="46" height="46" viewBox="0 0 46 46" fill="none" xmlns="http://www.w3.org/2000/svg">
<rect width="46" height="46" rx="10" fill="#156DF9"/>
<path d="M17.0326 13.371C16.9777 13.3939 16.9227 13.4169 16.8661 13.4405C14.6089 14.4243 12.8023 16.362 11.881 18.6289C11.8555 18.694 11.8301 18.7593 11.8049 18.8246C11.7908 18.8606 11.7768 18.8965 11.7623 18.9335C10.6579 21.7916 10.767 24.965 12.0022 27.7666C12.1099 28.0037 12.2259 28.2355 12.3497 28.4647C12.3977 28.5546 12.4439 28.6453 12.4898 28.7364C12.8153 29.3747 13.2237 29.9644 13.679 30.518C13.7143 30.5622 13.7496 30.6064 13.7859 30.6519C14.4453 31.4565 15.1911 32.1828 16.0462 32.778C16.0777 32.8001 16.1091 32.8223 16.1415 32.8451C17.1454 33.547 18.7278 34.5959 19.9916 34.5959C19.9916 30.8182 19.9916 27.0404 19.9916 23.1482C19.0829 22.7521 19.0829 22.7521 18.7631 22.6199C18.7266 22.6047 18.6901 22.5895 18.6524 22.5739C18.5767 22.5424 18.5009 22.511 18.4251 22.4797C18.3116 22.4327 18.1982 22.3855 18.0847 22.3384C17.9013 22.2623 17.7177 22.1865 17.534 22.1112C17.4623 22.0817 17.3906 22.0522 17.3189 22.0227C17.2165 21.9806 17.1139 21.9388 17.0112 21.8971C16.9522 21.873 16.8933 21.849 16.8325 21.8242C16.6874 21.7725 16.6874 21.7725 16.5394 21.7725C16.5231 23.9451 16.5069 26.1177 16.4901 28.3562C16.149 27.9824 15.8618 27.65 15.6024 27.2261C15.5846 27.1972 15.5669 27.1683 15.5487 27.1385C15.0195 26.2652 14.6346 25.3094 14.4064 24.3151C14.3984 24.2803 14.3903 24.2455 14.382 24.2096C14.1551 23.1638 14.1604 21.8805 14.4188 20.839C14.4294 20.7961 14.44 20.7532 14.4509 20.709C14.9873 18.6265 16.2774 16.8825 18.1267 15.7747C20.4326 14.4236 23.1592 14.0435 25.7529 14.7125C26.6328 14.9488 27.4631 15.272 28.277 15.6802C28.0848 15.2578 27.6452 14.9783 27.2907 14.6976C27.243 14.6585 27.1953 14.6194 27.1462 14.5791C25.9333 13.6091 24.4246 12.9706 22.9014 12.6832C22.8633 12.6758 22.8252 12.6685 22.786 12.6609C20.8508 12.3036 18.819 12.5554 17.0326 13.371Z" fill="white"/>
<path d="M23.2774 11.0004C23.2181 11.0006 23.2181 11.0006 23.1575 11.0008C22.3889 11.0035 21.6311 11.0345 20.8794 11.2092C20.8794 11.2254 20.8794 11.2416 20.8794 11.2583C20.9531 11.262 20.9531 11.262 21.0282 11.2658C23.6372 11.3978 25.9784 11.8552 28.0797 13.5184C28.1283 13.5558 28.1769 13.5931 28.2269 13.6316C29.1837 14.3837 30.0592 15.4073 30.5737 16.5137C30.6413 16.6565 30.7133 16.7962 30.7864 16.9363C30.9399 17.2418 31.0579 17.5516 31.1652 17.8758C31.1841 17.9326 31.203 17.9894 31.2225 18.048C31.5436 19.0446 31.6892 20.0322 31.6891 21.0745C31.6892 21.1943 31.6901 21.314 31.691 21.4338C31.6927 21.8993 31.6639 22.3447 31.5813 22.8043C31.5738 22.8481 31.5663 22.8918 31.5587 22.9369C31.3674 24.0215 31.0141 25.0514 30.5086 26.0316C30.4916 26.0653 30.4746 26.0991 30.4571 26.1338C30.2294 26.5608 29.9419 26.9235 29.6579 27.3244C29.6416 25.5734 29.6253 23.8223 29.6086 22.0182C28.277 21.4286 28.277 21.4286 27.6359 21.1829C27.5229 21.1364 27.4101 21.0892 27.298 21.0407C27.2428 21.0171 27.1877 20.9936 27.1309 20.9692C27.0176 20.9205 26.9043 20.8716 26.7911 20.8226C26.7366 20.7993 26.6821 20.7761 26.626 20.7521C26.5772 20.731 26.5283 20.7099 26.4779 20.6882C26.3536 20.6425 26.3536 20.6425 26.2057 20.6425C26.2057 25.2309 26.2057 29.8193 26.2057 34.5468C26.8168 34.4361 26.8168 34.4361 27.0629 34.3362C27.117 34.3144 27.171 34.2927 27.2267 34.2702C27.2824 34.247 27.3381 34.2237 27.3954 34.1998C27.4541 34.1755 27.5127 34.1513 27.5731 34.1264C28.9052 33.5675 30.0955 32.7934 31.1374 31.7954C31.171 31.7635 31.2046 31.7317 31.2392 31.6988C31.7701 31.1929 32.2392 30.6711 32.6663 30.0758C32.7242 29.9976 32.7242 29.9976 32.7834 29.9178C33.5553 28.8508 34.1132 27.6483 34.491 26.3909C34.5066 26.3412 34.5222 26.2915 34.5382 26.2402C34.6725 25.7971 34.7537 25.3583 34.8208 24.9016C34.8314 24.8327 34.8419 24.7639 34.8525 24.695C34.8812 24.5071 34.9084 24.319 34.9349 24.1308C34.9407 24.0908 34.9464 24.0508 34.9524 24.0095C34.9968 23.6657 34.9983 23.3194 34.9996 22.9732C34.9998 22.9224 34.9998 22.9224 35 22.8706C35.0012 19.8702 33.867 16.9214 31.7786 14.7467C31.6931 14.6517 31.6078 14.5565 31.5227 14.4611C31.3241 14.2436 31.1178 14.0497 30.8908 13.8623C30.8485 13.8257 30.8062 13.789 30.7625 13.7512C29.2999 12.5003 27.5207 11.645 25.6447 11.2246C25.6011 11.2146 25.5575 11.2047 25.5126 11.1944C24.7735 11.036 24.0312 10.9954 23.2774 11.0004Z" fill="white"/>
<path d="M21.5205 18.6772C21.5205 24.0439 21.5205 29.4105 21.5205 34.9398C21.9551 34.9792 22.3713 34.998 22.8058 34.9982C22.8679 34.9988 22.93 34.9994 22.994 35C23.6447 35.0009 24.2677 34.9409 24.9234 34.8907C24.9234 29.9942 24.9234 25.0978 24.9234 20.0529C24.6142 19.9232 24.305 19.7935 23.9864 19.6599C23.7958 19.5796 23.6052 19.4994 23.4146 19.419C23.3172 19.378 23.2198 19.3369 23.1224 19.2959C22.9732 19.2331 22.8241 19.1702 22.675 19.1073C22.528 19.0453 22.381 18.9834 22.2341 18.9215C22.1668 18.8931 22.1668 18.8931 22.0982 18.8642C22.0568 18.8468 22.0154 18.8293 21.9727 18.8114C21.9365 18.7961 21.9002 18.7808 21.8628 18.7651C21.6455 18.6772 21.6455 18.6772 21.5205 18.6772Z" fill="white"/>
</svg>
