<svg width="375" height="307" viewBox="0 0 375 307" fill="none" xmlns="http://www.w3.org/2000/svg">
<path d="M225.961 124.885H190.881C162.817 124.885 159.509 152.021 161.363 165.589C163.929 158.087 176.122 154.223 181.897 153.228C179.159 143.851 187.887 141.507 192.592 141.507H210.988C220.913 138.609 225.106 129.218 225.961 124.885Z" fill="white"/>
<path d="M209.283 155.572H182.973C166.545 156.254 160.157 168.359 159.016 174.326L155.38 194.572L175.487 185.834C176 174.241 181.119 171.485 183.615 171.556H194.952L209.283 155.572Z" fill="white"/>
<path d="M230.246 117.852L235.807 118.918C211.337 188.136 153.74 203.167 128 202.03C199.529 215.84 235.237 153.655 244.15 120.836L248 121.901L244.15 104L230.246 117.852Z" fill="url(#paint0_linear_1_40)"/>
<path d="M303.599 64.1161H196.312C110.482 64.1161 100.364 147.423 106.034 189.077C113.884 166.048 151.173 154.184 168.836 151.131C160.462 122.344 187.153 115.147 201.545 115.147H257.806C288.16 106.25 300.982 77.4191 303.599 64.1161Z" fill="white" fill-opacity="0.1"/>
<path d="M252.592 158.328H172.127C121.885 160.421 102.346 197.582 98.8574 215.901L87.7362 278.055L149.23 251.23C150.8 215.639 166.457 207.178 174.089 207.396H208.761L252.592 158.328Z" fill="white" fill-opacity="0.1"/>
<path d="M316.702 42.526L333.711 45.7972C258.872 258.296 82.7207 304.442 4 300.953C222.761 343.348 331.967 152.439 359.225 51.6854L371 54.9567L359.225 0L316.702 42.526Z" fill="white" fill-opacity="0.1"/>
<defs>
<linearGradient id="paint0_linear_1_40" x1="238.186" y1="104" x2="138.187" y2="204.372" gradientUnits="userSpaceOnUse">
<stop offset="1" stop-color="white"/>
</linearGradient>
</defs>
</svg>
